<?xml version="1.0" encoding="UTF-8"?>
<svg width="20px" height="20px" viewBox="0 0 20 20" version="1.1" xmlns="http://www.w3.org/2000/svg" xmlns:xlink="http://www.w3.org/1999/xlink">
    <title>Icon</title>
    <g id="⚠️-Crisis" stroke="none" stroke-width="1" fill-rule="evenodd">
        <g id="Homepage-Copy-3" transform="translate(-138.000000, -439.000000)" fill="black" fill-rule="nonzero">
            <g id="Group-4" transform="translate(102.000000, 71.000000)">
                <g id="Icon" transform="translate(36.000000, 368.000000)">
                    <path d="M10,1.66666667 C14.595,1.66666667 18.3333333,5.405 18.3333333,10 C18.3333333,14.595 14.595,18.3333333 10,18.3333333 C5.405,18.3333333 1.66666667,14.595 1.66666667,10 C1.66666667,5.405 5.405,1.66666667 10,1.66666667 Z M10,0 C4.4775,0 0,4.4775 0,10 C0,15.5225 4.4775,20 10,20 C15.5225,20 20,15.5225 20,10 C20,4.4775 15.5225,0 10,0 Z M6.66666667,14.1666667 L6.66666667,5.83333333 L15,10.1216667 L6.66666667,14.1666667 Z" id="Shape"></path>
                </g>
            </g>
        </g>
    </g>
</svg>